<svg height="462pt" viewBox="0 -17 462.168 462" width="462pt" xmlns="http://www.w3.org/2000/svg"><path d="m113.113281 112.390625h50.136719c3.3125 0 6-2.6875 6-6s-2.6875-6-6-6h-50.136719c-3.3125 0-6 2.6875-6 6s2.6875 6 6 6zm0 0"/><path d="m318.574219 177.035156c0-3.3125-2.6875-6-6-6h-74.644531c-3.3125 0-6 2.6875-6 6s2.6875 6 6 6h74.644531c3.3125 0 6-2.6875 6-6zm0 0"/><path d="m189.183594 171.035156c-3.3125 0-6 2.6875-6 6s2.6875 6 6 6h23.375c3.3125 0 6-2.6875 6-6s-2.6875-6-6-6zm0 0"/><path d="m113.113281 183.035156h50.277344c3.3125 0 6-2.6875 6-6s-2.6875-6-6-6h-50.277344c-3.3125 0-6 2.6875-6 6s2.6875 6 6 6zm0 0"/><path d="m253.324219 241.683594h-9.554688c-3.3125 0-6 2.6875-6 6s2.6875 6 6 6h9.554688c3.3125 0 6-2.6875 6-6s-2.6875-6-6-6zm0 0"/><path d="m218.375 241.683594h-105.261719c-3.3125 0-6 2.6875-6 6s2.6875 6 6 6h105.261719c3.3125 0 6-2.6875 6-6s-2.6875-6-6-6zm0 0"/><path d="m298.167969 112.390625h14.398437c3.316406 0 6-2.6875 6-6s-2.683594-6-6-6h-14.398437c-3.3125 0-6 2.6875-6 6s2.6875 6 6 6zm0 0"/><path d="m188.191406 112.390625h84.691406c3.316407 0 6-2.6875 6-6s-2.683593-6-6-6h-84.691406c-3.3125 0-6 2.6875-6 6s2.6875 6 6 6zm0 0"/><path d="m451.097656 207.84375h-44.070312v-22.058594c0-3.316406-2.6875-6-6-6h-29.652344v-50.566406h69.078125c3.316406 0 6-2.6875 6-6v-79.589844c-.023437-24.039062-19.503906-43.519531-43.539063-43.5429685-.5 0-.992187.0195315-1.488281.0351565-.21875-.0234378-.4375-.0351565-.65625-.0351565h-289.214843c-26.785157.0859375-48.546876 21.6367185-48.898438 48.4179685l-2.179688 266.730469h-54.476562c-3.3125 0-6 2.6875-6 6v39.871094c0 35.851562 27.511719 65.253906 62.125 67.425781.425781.097656.859375.144531 1.292969.144531h237.980469c.300781-.003906.597656-.027343.894531-.074219.945312.042969 1.890625.074219 2.847656.074219 34.453125 0 63.464844-27.425781 66.046875-62.4375.007812-.144531.015625-.292969.015625-.4375v-26.246093h71.023437c3.3125 0 6-2.6875 6-6v-75.808594l9.878907-3.363282c2.429687-.828124 4.0625-3.109374 4.0625-5.679687v-29.792969c-.007813-6.109375-4.960938-11.0625-11.070313-11.066406zm-56.070312 0h-57.71875v-16.058594h57.71875zm39.425781-164.214844v73.589844h-63.078125v-73.589844c.097656-17.351562 14.191406-31.363281 31.539062-31.363281 17.351563 0 31.441407 14.011719 31.539063 31.363281zm-368.21875 373.054688c-29.898437 0-54.234375-24.929688-54.234375-55.570313v-33.871093h226.867188v33.871093c-.054688 22.074219 10.621093 42.800781 28.625 55.570313zm292.96875-51.097656c-2.226563 28.671874-25.929687 51.097656-54.101563 51.097656-29.90625 0-54.234374-24.929688-54.234374-55.570313v-39.871093c0-3.3125-2.6875-6-6-6h-172.390626l2.179688-266.621094c.265625-20.207032 16.691406-36.464844 36.898438-36.527344h261.390624c-8.664062 8.199219-13.574218 19.605469-13.570312 31.539062v136.152344h-28.066406c-3.3125 0-6 2.683594-6 6v22.054688h-44.070313c-6.109375.007812-11.0625 4.957031-11.070312 11.070312v29.789063c-.003907 2.570312 1.632812 4.855469 4.0625 5.683593l9.882812 3.371094v75.804688c0 3.3125 2.683594 6 6 6h69.089844zm-63.089844-38.023438v-66.421875l21.0625 5.269531c.476563.121094.964844.179688 1.457031.179688h41.535157v20.226562c0 3.3125 2.6875 6 6 6s6-2.6875 6-6v-20.226562h41.535156c.492187 0 .980469-.058594 1.457031-.179688l21.066406-5.269531v66.414063zm154.054688-83.148438-9.644531 3.289063-27.558594 6.898437h-93.59375l-27.558594-6.898437-9.644531-3.289063v-24.570312h168zm0 0"/></svg>